<svg width="31" height="30" viewBox="0 0 31 30" fill="none" xmlns="http://www.w3.org/2000/svg">
<path d="M22.5272 7H21.5272V5H19.5272V7H11.5272V5H9.52722V7H8.52722C7.41722 7 6.53722 7.9 6.53722 9L6.52722 23C6.52722 24.1 7.41722 25 8.52722 25H22.5272C23.6272 25 24.5272 24.1 24.5272 23V9C24.5272 7.9 23.6272 7 22.5272 7ZM22.5272 23H8.52722V13H22.5272V23ZM22.5272 11H8.52722V9H22.5272V11ZM12.5272 17H10.5272V15H12.5272V17ZM16.5272 17H14.5272V15H16.5272V17ZM20.5272 17H18.5272V15H20.5272V17ZM12.5272 21H10.5272V19H12.5272V21ZM16.5272 21H14.5272V19H16.5272V21ZM20.5272 21H18.5272V19H20.5272V21Z" fill="#A2ACBE"/>
</svg>
