<svg width="31" height="30" viewBox="0 0 31 30" fill="none" xmlns="http://www.w3.org/2000/svg">
<path d="M15.7324 25C16.8606 25 17.7836 24.0769 17.7836 22.9487H13.6811C13.6811 24.0769 14.6041 25 15.7324 25ZM21.8862 18.8462V13.7179C21.8862 10.5692 20.2144 7.93333 17.2708 7.2359V6.53846C17.2708 5.68718 16.5836 5 15.7324 5C14.8811 5 14.1939 5.68718 14.1939 6.53846V7.2359C11.2606 7.93333 9.5785 10.559 9.5785 13.7179V18.8462L7.52722 20.8974V21.9231H23.9375V20.8974L21.8862 18.8462ZM19.8349 19.8718H11.6298V13.7179C11.6298 11.1744 13.1785 9.10256 15.7324 9.10256C18.2862 9.10256 19.8349 11.1744 19.8349 13.7179V19.8718Z" fill="#A2ACBE"/>
</svg>
